<svg width="39" height="39" viewBox="0 0 39 39" fill="none" xmlns="http://www.w3.org/2000/svg">
<path d="M19.5 39C30.2696 39 39 30.2696 39 19.5C39 8.73045 30.2696 0 19.5 0C8.73045 0 0 8.73045 0 19.5C0 30.2696 8.73045 39 19.5 39Z" fill="url(#paint0_linear)"/>
<path d="M26.4538 11.9137C27.0588 12.6993 27.3277 13.6813 27.3277 14.7942C27.3277 15.9725 27.0588 16.889 26.4538 17.6091C26.1176 18.0019 25.6471 18.3947 24.9748 18.722C25.9832 19.0494 26.7227 19.6385 27.2605 20.4241C27.7983 21.2097 28 22.1262 28 23.2391C28 24.352 27.7311 25.3994 27.126 26.2505C26.7899 26.8397 26.3193 27.3634 25.7143 27.7562C25.1092 28.2144 24.3697 28.5417 23.4958 28.7381C22.6218 28.9345 21.7479 29 20.7395 29H12V10.0152H21.4118C23.8319 9.8843 25.5126 10.6044 26.4538 11.9137ZM15.8992 13.1575V17.3473H20.6723C21.5462 17.3473 22.2185 17.2163 22.7563 16.889C23.2941 16.5617 23.563 16.038 23.563 15.2524C23.563 14.3359 23.2269 13.8122 22.4874 13.4849C21.8824 13.2885 21.1429 13.1575 20.2017 13.1575H15.8992ZM15.8992 20.4896V25.5304H20.605C21.479 25.5304 22.084 25.3994 22.5546 25.203C23.4286 24.8103 23.8319 24.0247 23.8319 22.8463C23.8319 21.8643 23.4286 21.2097 22.6218 20.8169C22.1513 20.6205 21.479 20.4896 20.6723 20.4896H15.8992Z" fill="white"/>
<defs>
<linearGradient id="paint0_linear" x1="0" y1="19.5" x2="39" y2="19.5" gradientUnits="userSpaceOnUse">
<stop stop-color="#C79081"/>
<stop offset="0.635417" stop-color="#DFA579"/>
</linearGradient>
</defs>
</svg>
