<svg width="25" height="25" viewBox="0 0 25 25" fill="none" xmlns="http://www.w3.org/2000/svg">
<path d="M12.4998 0C5.59657 0 0 5.59667 0 12.5C0 19.4033 5.59657 25 12.4998 25C19.4034 25 25 19.4033 25 12.5C25 5.59667 19.4034 0 12.4998 0ZM16.4156 13.3121C15.7077 13.9029 14.6968 14.1975 13.3835 14.1975H10.8665V18.545H8.35694V6.455H13.5477C14.7443 6.455 15.6985 6.76667 16.4101 7.39C17.1214 8.01333 17.4776 8.97875 17.4776 10.2854C17.4772 11.7121 17.1235 12.7213 16.4156 13.3121Z" fill="url(#paint3_linear)"/>
<defs>
<linearGradient id="paint3_linear" x1="1.5625" y1="16.875" x2="25" y2="16.875" gradientUnits="userSpaceOnUse">
<stop stop-color="#3C3A3A"/>
<stop offset="1" stop-color="#838383"/>
</linearGradient>
</defs>
</svg>
